<svg xmlns="http://www.w3.org/2000/svg" viewBox="0 0 720 420" role="img" aria-label="Modern blue apartment building">
  <defs>
    <linearGradient id="sky" x1="0" x2="0" y1="0" y2="1">
      <stop offset="0" stop-color="#9fd3ff"/>
      <stop offset="1" stop-color="#e8f6ff"/>
    </linearGradient>
    <linearGradient id="glass" x1="0" x2="1">
      <stop offset="0" stop-color="#184c78"/>
      <stop offset="1" stop-color="#2f86bd"/>
    </linearGradient>
  </defs>
  <rect width="720" height="420" fill="url(#sky)"/>
  <path d="M0 336c104-28 193-35 287-16 108 22 187 24 433-18v118H0z" fill="#dcefcf"/>
  <path d="M0 360h720v60H0z" fill="#a8c08d"/>
  <path d="M98 130h354v210H98z" fill="#153b5a"/>
  <path d="M452 166h116v174H452z" fill="#254f6d"/>
  <path d="M86 116h382v28H86z" fill="#dfe8ee"/>
  <path d="M450 152h136v24H450z" fill="#dfe8ee"/>
  <g fill="url(#glass)">
    <rect x="126" y="160" width="58" height="42" rx="4"/>
    <rect x="210" y="160" width="58" height="42" rx="4"/>
    <rect x="294" y="160" width="58" height="42" rx="4"/>
    <rect x="378" y="160" width="48" height="42" rx="4"/>
    <rect x="126" y="226" width="58" height="42" rx="4"/>
    <rect x="210" y="226" width="58" height="42" rx="4"/>
    <rect x="294" y="226" width="58" height="42" rx="4"/>
    <rect x="378" y="226" width="48" height="42" rx="4"/>
    <rect x="475" y="195" width="34" height="38" rx="4"/>
    <rect x="524" y="195" width="28" height="38" rx="4"/>
    <rect x="475" y="256" width="34" height="38" rx="4"/>
    <rect x="524" y="256" width="28" height="38" rx="4"/>
  </g>
  <rect x="185" y="296" width="82" height="44" fill="#e8eef3"/>
  <rect x="300" y="296" width="46" height="44" fill="#e8eef3"/>
  <path d="M74 340h542" stroke="#6c7f8b" stroke-width="8" stroke-linecap="round"/>
  <g fill="#2f7d32">
    <circle cx="72" cy="322" r="24"/>
    <circle cx="628" cy="323" r="30"/>
    <circle cx="585" cy="334" r="18"/>
  </g>
  <path d="M55 350h596" stroke="#f6f8fb" stroke-width="16" stroke-linecap="round"/>
</svg>
